<svg version="1.0" xmlns="http://www.w3.org/2000/svg" width="300.000000pt" height="136.000000pt"
  viewBox="0 0 300.000000 136.000000" preserveAspectRatio="xMidYMid meet">
  <g transform="translate(0.000000,136.000000) scale(0.100000,-0.100000)" fill="#000000"
    stroke="none">
    <path
      d="M761 878 c-73 -159 -132 -290 -130 -292 2 -2 13 -8 25 -14 20 -10 27 3 144 256 67 147 128 276 135 287 11 19 10 23 -14 36 l-27 16 -133 -289z" />
    <path
      d="M1780 1139 l0 -29 55 6 55 7 0 -239 0 -239 -54 3 c-51 4 -54 2 -58 -22 l-5 -26 148 0 149 0 0 26 c0 25 -2 25 -57 23 l-58 -3 -2 259 -2 258 -86 2 -85 3 0 -29z" />
    <path
      d="M2203 1093 c-8 -3 -13 -24 -13 -54 l0 -49 -50 0 c-47 0 -50 -2 -50 -25 0 -23 3 -25 48 -25 l47 0 -3 -131 c-4 -146 4 -181 49 -204 38 -20 86 -18 137 5 38 17 43 23 36 42 -9 32 -9 32 -37 13 -38 -25 -87 -23 -109 5 -15 19 -18 41 -18 146 l0 124 69 0 c67 0 68 0 63 25 -4 24 -8 25 -67 25 -55 0 -63 2 -60 18 2 9 6 34 9 55 4 33 2 37 -17 36 -12 0 -28 -3 -34 -6z" />
    <path
      d="M373 986 c-153 -81 -173 -94 -173 -116 0 -20 11 -31 53 -54 28 -16 106 -61 172 -100 66 -39 123 -72 128 -74 4 -2 7 11 7 30 0 36 10 28 -233 160 l-69 37 151 76 c144 72 151 76 151 105 0 17 -3 29 -7 29 -5 -1 -86 -43 -180 -93z" />
    <path
      d="M2509 1049 c6 -28 19 -37 148 -103 78 -39 142 -73 142 -76 0 -3 -64 -41 -143 -84 -131 -72 -145 -82 -149 -110 -3 -17 -3 -32 -2 -34 2 -2 83 44 182 102 145 85 178 109 178 126 0 19 -30 38 -175 116 -96 51 -178 93 -181 94 -4 0 -4 -14 0 -31z" />
    <path
      d="M1049 989 c-49 -14 -92 -60 -91 -98 2 -62 30 -85 147 -122 96 -30 120 -80 54 -114 -55 -29 -151 -10 -184 37 -13 19 -14 19 -30 -12 -14 -27 -15 -34 -3 -42 71 -48 179 -62 238 -31 48 25 83 80 76 118 -10 46 -43 72 -130 101 -95 31 -106 39 -106 70 0 30 35 54 80 54 38 0 97 -31 107 -56 4 -12 9 -10 24 12 14 21 15 31 7 42 -32 38 -126 58 -189 41z" />
    <path
      d="M1475 991 c-36 -9 -95 -39 -95 -48 0 -4 7 -14 16 -24 15 -17 17 -17 43 2 62 46 142 33 167 -27 24 -58 18 -64 -66 -68 -125 -6 -190 -49 -190 -125 0 -98 117 -143 224 -86 44 23 46 24 46 5 0 -15 7 -20 28 -20 l27 0 -3 152 c-4 166 -12 197 -60 222 -36 18 -100 26 -137 17z m145 -238 c-1 -62 -58 -113 -125 -113 -55 0 -85 22 -85 64 0 54 39 74 148 75 61 1 62 1 62 -26z" />
    <path
      d="M2038 365 c-6 -14 -17 -25 -25 -25 -7 0 -13 -4 -13 -10 0 -5 8 -10 18 -10 14 0 16 -8 14 -50 -3 -41 -1 -50 12 -50 13 0 16 11 16 50 0 43 3 50 20 50 11 0 20 5 20 10 0 6 -11 10 -25 10 -18 0 -23 4 -19 15 4 8 17 15 30 15 13 0 24 5 24 10 0 6 -14 10 -30 10 -23 0 -33 -6 -42 -25z" />
    <path
      d="M198 300 c-2 -59 0 -80 10 -80 7 0 12 13 12 30 0 24 4 30 21 30 37 0 59 19 59 50 0 33 -23 50 -69 50 l-29 0 -4 -80z m77 30 c0 -20 -6 -26 -27 -28 -25 -3 -28 0 -28 28 0 28 3 31 28 28 21 -2 27 -8 27 -28z" />
    <path
      d="M1630 300 c0 -66 3 -80 16 -80 12 0 14 7 9 30 -6 28 -5 30 23 30 31 0 62 26 62 53 0 27 -30 47 -71 47 l-39 0 0 -80z m80 45 c17 -20 -3 -45 -36 -45 -20 0 -24 5 -24 30 0 25 4 30 24 30 13 0 29 -7 36 -15z" />
    <path d="M2550 370 c0 -5 7 -10 15 -10 8 0 15 5 15 10 0 6 -7 10 -15 10 -8 0 -15 -4 -15 -10z" />
    <path
      d="M1260 355 c0 -8 -7 -15 -15 -15 -8 0 -15 -4 -15 -10 0 -5 7 -10 15 -10 11 0 15 -11 15 -39 0 -54 26 -80 64 -65 20 8 11 24 -14 24 -14 0 -19 9 -22 40 -3 36 -1 40 19 40 13 0 23 5 23 10 0 6 -9 10 -20 10 -11 0 -20 7 -20 15 0 8 -7 15 -15 15 -8 0 -15 -7 -15 -15z" />
    <path
      d="M337 333 c-4 -3 -7 -12 -7 -20 0 -10 4 -11 19 -2 20 13 51 6 51 -11 0 -5 -13 -10 -29 -10 -35 0 -55 -22 -46 -50 6 -18 25 -26 50 -20 6 2 19 2 30 2 18 -1 20 4 16 46 -2 26 -8 53 -13 60 -11 13 -60 17 -71 5z m63 -68 c0 -19 -24 -29 -47 -20 -17 6 -17 7 1 21 26 18 46 18 46 -1z" />
    <path
      d="M473 333 c-31 -12 -9 -57 31 -64 11 -2 21 -9 23 -15 6 -19 -29 -26 -47 -9 -19 17 -30 19 -30 5 0 -5 11 -17 24 -25 18 -12 30 -13 50 -5 39 14 32 52 -11 65 -18 5 -33 15 -33 22 0 15 36 18 45 3 9 -15 25 -12 25 4 0 22 -44 33 -77 19z" />
    <path
      d="M591 322 c-13 -24 -1 -41 34 -50 16 -5 30 -13 32 -19 6 -18 -29 -24 -47 -8 -19 17 -30 19 -30 5 0 -5 11 -17 24 -25 18 -12 30 -13 50 -5 39 14 32 52 -11 65 -18 5 -33 15 -33 22 0 16 32 17 48 1 17 -17 28 -2 12 17 -17 21 -67 19 -79 -3z" />
    <path
      d="M710 330 c0 -5 9 -10 20 -10 17 0 20 -7 20 -40 0 -33 -3 -40 -20 -40 -11 0 -20 -4 -20 -10 0 -5 23 -10 50 -10 28 0 50 5 50 10 0 6 -9 10 -20 10 -17 0 -20 7 -20 50 0 49 -1 50 -30 50 -16 0 -30 -4 -30 -10z" />
    <path
      d="M846 325 c-25 -25 -21 -81 8 -100 52 -34 107 27 75 84 -17 31 -60 39 -83 16z m64 -24 c10 -20 4 -51 -14 -63 -15 -10 -46 10 -46 32 0 49 39 70 60 31z" />
    <path
      d="M968 278 c-2 -40 1 -58 9 -58 7 0 13 19 15 48 3 40 6 47 26 50 20 3 22 0 22 -47 0 -39 4 -51 15 -51 11 0 15 11 15 41 0 62 -13 79 -59 77 l-39 -1 -4 -59z" />
    <path
      d="M1372 327 c-6 -6 -13 -24 -17 -39 -5 -21 -1 -33 19 -52 30 -31 37 -32 67 -8 25 21 30 71 9 96 -15 19 -63 21 -78 3z m66 -43 c4 -38 -20 -63 -43 -44 -15 13 -21 61 -8 74 4 4 16 6 28 4 14 -2 21 -12 23 -34z" />
    <path
      d="M1770 278 c0 -32 4 -58 10 -58 6 0 10 17 10 38 0 41 14 62 42 62 10 0 18 4 18 9 0 6 -18 9 -40 8 l-40 -1 0 -58z" />
    <path
      d="M1886 318 c-28 -40 -20 -75 22 -97 35 -19 72 9 72 54 0 61 -62 89 -94 43z m68 -14 c16 -41 -8 -79 -41 -67 -13 5 -18 65 -6 76 12 13 41 7 47 -9z" />
    <path
      d="M2134 315 c-33 -51 15 -116 70 -95 15 5 24 14 21 20 -4 7 -13 6 -26 -1 -15 -7 -24 -7 -35 2 -24 20 -16 29 26 29 33 0 40 3 40 19 0 50 -68 69 -96 26z m70 -10 c4 -11 -2 -15 -24 -15 -29 0 -38 9 -23 23 12 12 41 7 47 -8z" />
    <path
      d="M2272 328 c-21 -21 -13 -39 24 -54 19 -8 34 -20 32 -26 -7 -19 -24 -20 -41 -3 -9 8 -21 15 -27 15 -20 0 -5 -24 24 -38 23 -12 31 -11 52 3 32 21 27 35 -19 58 -20 10 -35 23 -31 28 7 12 44 12 44 -1 0 -5 7 -10 15 -10 13 0 14 4 5 20 -12 23 -59 27 -78 8z" />
    <path
      d="M2403 333 c-30 -11 -6 -63 28 -63 23 0 34 -19 21 -32 -8 -8 -19 -6 -37 6 -31 20 -46 13 -23 -10 22 -22 68 -21 84 1 17 23 10 34 -32 51 -19 8 -34 19 -34 24 0 13 37 13 45 0 9 -15 25 -12 25 4 0 22 -44 33 -77 19z" />
    <path
      d="M2510 331 c0 -6 9 -11 20 -11 17 0 20 -7 20 -40 0 -33 -3 -40 -20 -40 -11 0 -20 -4 -20 -10 0 -5 25 -10 56 -10 34 0 53 4 49 10 -3 6 -15 10 -26 10 -18 0 -20 6 -18 48 3 46 3 47 -29 50 -18 2 -32 -1 -32 -7z" />
    <path
      d="M2647 322 c-36 -39 -12 -104 38 -104 33 0 55 25 55 63 0 53 -59 79 -93 41z m61 -14 c16 -16 15 -44 -3 -62 -31 -30 -67 13 -45 54 12 23 30 26 48 8z" />
    <path
      d="M2770 278 c0 -69 18 -78 22 -10 3 43 5 47 28 47 23 0 25 -3 25 -48 0 -31 4 -47 13 -47 17 0 16 94 -1 109 -8 6 -30 10 -50 9 l-37 -1 0 -59z" />
  </g>
</svg> 